<?xml version="1.0" encoding="utf-8"?>
<!-- Generator: Adobe Illustrator 16.0.0, SVG Export Plug-In . SVG Version: 6.00 Build 0)  -->
<!DOCTYPE svg PUBLIC "-//W3C//DTD SVG 1.1//EN" "http://www.w3.org/Graphics/SVG/1.1/DTD/svg11.dtd">
<svg version="1.1" id="Layer_1" xmlns="http://www.w3.org/2000/svg" xmlns:xlink="http://www.w3.org/1999/xlink" x="0px" y="0px"
	 width="68.031px" height="68.031px" viewBox="0 0 68.031 68.031" enable-background="new 0 0 68.031 68.031" xml:space="preserve">
<g>
	<g>
		<path fill="#FFFFFF" d="M10.859,16.307v-9.06h5.583v8.532c0,1.18,0.271,2.358,1.797,2.358c1.529,0,1.798-1.178,1.798-2.358V7.248
			h5.583v9.06c0,4.568-3.159,6.02-7.381,6.02C14.02,22.327,10.859,20.875,10.859,16.307"/>
		<path fill="#FFFFFF" d="M38.452,11.588c1.061,1.404,1.688,2.409,1.688,2.409h0.109c0,0-0.056-1.205-0.056-2.61v-4.14h5.586v14.781
			h-4.634l-3.43-4.341c-1.036-1.331-1.742-2.384-1.742-2.384h-0.111c0,0,0.056,1.153,0.056,3.035v3.69h-5.583V7.248h4.902
			L38.452,11.588z"/>
	</g>
	<rect x="50.804" y="7.248" fill="#FFFFFF" width="5.586" height="14.781"/>
	<polygon fill="#FFFFFF" points="11.274,41.839 11.274,27.058 25.407,27.058 25.407,31.474 16.857,31.474 16.857,33.483 
		24.062,33.483 24.062,37.673 16.857,37.673 16.857,41.839 	"/>
	<rect x="10.875" y="46.869" fill="#FFFFFF" width="14.73" height="14.728"/>
	<g>
		<path fill="#FFFFFF" d="M39.376,41.839c-0.518-0.501-0.681-0.953-0.898-1.83l-0.271-1.155c-0.191-0.878-0.6-1.154-1.389-1.154
			h-1.009v4.14h-5.474V27.056h7.762c3.679,0,6.428,1.232,6.428,4.77c0,2.459-1.311,3.541-3.242,3.838v0.102
			c1.417,0.201,2.125,0.854,2.534,2.184l0.597,1.955c0.273,0.855,0.492,1.383,1.092,1.934H39.376z M35.809,33.809h1.454
			c0.924,0,1.542-0.401,1.542-1.393c0-0.852-0.556-1.336-1.482-1.336h-1.514V33.809z"/>
	</g>
</g>
</svg>
